<?xml version="1.0" encoding="UTF-8"?>
<svg id="Layer_1" data-name="Layer 1" xmlns="http://www.w3.org/2000/svg" viewBox="0 0 372 613">
  <defs>
    <style>
      .cls-1 {
        fill: #fff;
      }

      .cls-2 {
        fill: #ff00ed;
      }

      .cls-2, .cls-3 {
        stroke: #000;
        stroke-width: 2px;
      }

      .cls-3 {
        fill: #00b7ff;
        stroke-miterlimit: 10;
      }

      .cls-4 {
        stroke: #00b7ff;
      }

      .cls-4, .cls-5 {
        fill: none;
        stroke-linecap: round;
        stroke-linejoin: round;
      }

      .cls-5 {
        stroke: #ff00ed;
      }
    </style>
  </defs>
  <g>
    <g>
      <path d="M186,612c-93.96,0-173.11-69.99-184.58-163h369.16c-11.46,93.01-90.62,163-184.58,163Z"/>
      <path class="cls-1" d="M369.44,450c-5.68,43.83-26.96,84.19-60.07,113.85-33.94,30.4-77.76,47.15-123.37,47.15s-89.43-16.74-123.37-47.15c-33.12-29.66-54.39-70.02-60.07-113.85h366.89M371.71,448H.29c10.89,92.91,89.87,165,185.71,165s174.81-72.09,185.71-165h0Z"/>
    </g>
    <g>
      <path d="M1.42,164C12.89,70.99,92.04,1,186,1s173.11,69.99,184.58,163H1.42Z"/>
      <path class="cls-1" d="M186,2c45.61,0,89.43,16.74,123.37,47.15,33.12,29.66,54.39,70.02,60.07,113.85H2.56c5.68-43.83,26.96-84.19,60.07-113.85C96.57,18.74,140.39,2,186,2M186,0C90.17,0,11.19,72.09.29,165h371.41C360.81,72.09,281.83,0,186,0h0Z"/>
    </g>
    <g>
      <polygon points="2.04 166 369.85 166 231.53 330.01 130.48 331.99 2.04 166"/>
      <path class="cls-1" d="M367.7,167l-136.64,162.02-100.09,1.96L4.08,167h363.62M372,165H0l130,168,102-2,140-166h0Z"/>
    </g>
    <g>
      <polygon points="2.64 447 130.39 333.99 231.65 332.01 369.24 447 2.64 447"/>
      <path class="cls-1" d="M231.29,333.01l135.2,112.99H5.28l125.49-111.01,100.52-1.97M232,331l-102,2L0,448h372l-140-117h0Z"/>
    </g>
  </g>
  <g>
    <path class="cls-5" d="M68.36,85.22v46.72h26.79c.82,0,1.53-.29,2.13-.86,1.94-1.71.48-5.14-2.06-5.04h-20.95v-14.48h9c1.63.04,2.99-1.4,2.95-3.02.04-1.55-1.4-3-2.95-2.95h-9v-14.38h20.88c2.6.07,4.07-3.28,2.13-5.08-.6-.6-1.31-.9-2.13-.9h-26.79Z"/>
    <path class="cls-5" d="M114.44,130.08c1.77,1.24,3.69,1.86,5.75,1.86,0,0,11.95,0,11.95,0,7.05-.03,11.24-8.41,7.26-14.26-1.02-1.56-2.33-2.69-3.92-3.39l-15.7-6.99c-.88-.4-1.31-.98-1.31-1.74,0-1.09.66-1.64,1.97-1.64h13.36c.84,0,1.65.42,2.43,1.27,1.29,1.44,3.14,1.74,4.55.46,1.79-1.88.78-3.96-1.53-5.75-1.62-1.25-3.48-1.88-5.59-1.88h-13.54c-8.25.07-10.58,11.4-2.88,14.7,0,0,15.86,7.14,15.86,7.14,3.22,1.14,2.16,6.21-1.09,6.19h-11c-1.62,0-2.85-.42-3.71-1.27-1.48-1.56-3.29-1.68-4.64-.37-1.75,2.05-.74,3.88,1.79,5.68Z"/>
    <path class="cls-5" d="M182.2,126.04h-12.09c-1.08,0-1.95-.29-2.6-.88l-5.2-4.43c-.61-.54-.91-1.2-.91-1.97v-7.21c0-1.1.39-1.98,1.16-2.64l4.75-4.04c.73-.63,1.49-.95,2.29-.95,0,0,12.69,0,12.69,0,2.58.12,3.96-3.3,2.09-5.04-.57-.57-1.27-.86-2.09-.86h-13.25c-1.9,0-3.68.68-5.34,2.04l-5.17,4.46c-2.16,1.85-3.19,4.03-3.09,6.54v7.7c0,2.6.91,4.66,2.74,6.19l5.73,4.99c1.57,1.34,3.47,2,5.7,2h12.62c3.91-.07,3.88-5.82,0-5.91Z"/>
    <path class="cls-5" d="M228.61,128.99s-.74-22.11-.74-22.11c-.02-4.81-4.12-8.97-8.94-8.86h-11.23c-.82,0-1.52.29-2.1.86-1.89,1.72-.42,5.13,2.1,5.04h11.24c1.6-.04,3,1.35,2.96,2.95l.07,4.18c-1.2-.28-2.11-.42-2.75-.42h-11.58c-4.8-.12-9.06,4.12-8.94,8.93v3.45c0,2.48.87,4.59,2.61,6.33,1.74,1.73,3.85,2.6,6.34,2.6h10l5-2.95c.07,3.89,5.9,3.91,5.98,0Z"/>
    <path class="cls-5" d="M222.4,122.14l-.18-2.5c-.01-1.63-1.32-2.98-2.96-2.95h-11.65c-1.6-.04-2.99,1.35-2.96,2.95v3.3c-.04,1.55,1.41,3,2.96,2.95,0,0,8.34,0,8.34,0l6.44-3.76Z"/>
    <path class="cls-5" d="M248.29,118.76c0,.91.43,1.81,1.3,2.67l4.25,4.25c1.05,1.05,1.98,1.58,2.78,1.58,1.43.03,2.57.13,3.83-1.09,0,0,4.61-4.04,4.61-4.04.77-.61,1.16-1.44,1.16-2.5v-9.53c0-.94-.43-1.77-1.3-2.5l-4.96-4.25c-.92-.96-2.4-.71-3.55-.74-.66,0-1.51.54-2.57,1.62l-4.39,4.36c-.77.77-1.16,1.64-1.16,2.6v7.56Z"/>
    <path class="cls-5" d="M242.32,99.53v42.12c-.05,1.63,1.41,3.06,3.02,3.02,1.63.04,2.99-1.4,2.95-3.02v-13.08s2.29,2.29,2.29,2.29c1.86,1.97,4.47,2.55,7.14,2.39,2.44,0,4.45-.73,6.05-2.18l4.82-4.15c2.32-1.99,3.48-4.44,3.48-7.35v-9.21c0-2.88-1.08-5.26-3.23-7.14,0,0-4.92-4.25-4.92-4.25-2.13-1.95-4.52-2.47-7.14-2.32-2.79,0-5.61,1.59-8.47,4.78,0,0,0-1.9,0-1.9-.12-3.92-5.87-3.87-5.98,0Z"/>
    <path class="cls-5" d="M291.78,113.24h17.93v-4.11c0-1.1-.34-1.95-1.02-2.53l-1.72-1.51c-.89-.73-1.69-1.09-2.39-1.09h-7.42c-1.58-.13-3.07,1.46-4.22,2.39-.77.59-1.16,1.35-1.16,2.29v4.57Z"/>
    <path class="cls-5" d="M285.74,108.11v13.54c-.03,1.93,1.31,4.79,2.88,5.98l2.64,2.32c1.2,1.04,4.04,2.07,5.77,2,0,0,15.57,0,15.57,0,2.52.04,3.99-3.3,2.07-5.04-.59-.57-1.28-.86-2.07-.86h-15.19c-.84,0-1.73-.36-2.67-1.09-1.18-1.02-3.17-2.26-3.02-4.01v-1.72h20.88c.8,0,1.49-.29,2.07-.88s.88-1.28.88-2.07v-7.14c0-2.84-.8-4.97-2.39-6.4l-2.21-2.11c-1.85-1.73-3.82-2.6-5.91-2.6h-8.3c-1.97,0-3.76.66-5.38,1.97,0,0-2.46,1.93-2.46,1.93-1.57,1.1-3.16,4.45-3.16,6.19Z"/>
    <path class="cls-5" d="M74.34,186.95h14.98c1.6.04,2.99-1.35,2.95-2.95v-3.45c.04-1.6-1.35-2.99-2.95-2.95h-14.98v9.35Z"/>
    <path class="cls-5" d="M68.43,215.39c-.1,2.59,3.32,3.94,5.08,2.09.6-.57.9-1.27.9-2.09v-22.54h4.27l13.83,23.91c.61,1.06,1.5,1.58,2.67,1.57,2.35.03,3.87-2.78,2.44-4.75l-12.06-20.74s3.76,0,3.76,0c4.78.12,8.98-4.15,8.86-8.93v-3.38c0-2.44-.87-4.53-2.62-6.29-1.75-1.76-3.83-2.64-6.24-2.64h-20.88v43.77Z"/>
    <path class="cls-5" d="M117.76,207.27c0,1.08.39,1.93,1.16,2.57l2.21,1.9c.49.42,1.18.63,2.07.63h6.86c1.73.15,3.32-1.62,4.54-2.67.73-.56,1.09-1.35,1.09-2.36v-11.95c0-1.17-.36-2.04-1.09-2.6l-2.07-1.65c-.7-.58-1.52-.88-2.46-.88h-6.12c-2.36-.14-3.59,1.41-5.1,2.67-.73.61-1.09,1.41-1.09,2.39v11.95Z"/>
    <path class="cls-5" d="M111.78,195.07s0,12.48,0,12.48c-.24,5.07,6.45,10.98,11.43,10.72h6.93c2.65,0,5.22-1.12,7.72-3.38s3.74-4.7,3.74-7.35v-12.48c.28-5.2-6.46-11.04-11.46-10.72h-6.93c-2.81,0-5.42,1.14-7.82,3.43-2.4,2.29-3.6,4.72-3.6,7.29Z"/>
    <path class="cls-5" d="M155.27,195.07s0,12.48,0,12.48c-.24,5.07,6.45,10.98,11.43,10.72h6.93c2.65,0,5.22-1.12,7.72-3.38s3.74-4.7,3.74-7.35v-12.48c.28-5.2-6.46-11.04-11.46-10.72h-6.93c-2.81,0-5.42,1.14-7.82,3.43-2.4,2.29-3.6,4.72-3.6,7.29Z"/>
    <path class="cls-5" d="M161.25,207.27c0,1.08.39,1.93,1.16,2.57l2.21,1.9c.49.42,1.18.63,2.07.63h6.86c1.73.15,3.32-1.62,4.54-2.67.73-.56,1.09-1.35,1.09-2.36v-11.95c0-1.17-.36-2.04-1.09-2.6l-2.07-1.65c-.7-.58-1.52-.88-2.46-.88h-6.12c-2.36-.14-3.59,1.41-5.1,2.67-.73.61-1.09,1.41-1.09,2.39v11.95Z"/>
    <path class="cls-5" d="M198.09,187.37v28.02c-.08,2.49,3.36,4,5.06,2.07.56-.58.84-1.28.84-2.07v-21.02s4.23-3.59,4.23-3.59c.97-.86,2.56-.52,2.45,1.05v23.48c-.05,1.59,1.39,2.99,2.95,2.95,1.58.04,2.99-1.3,2.95-2.88v-21.59s3.52-2.95,3.52-2.95c1.22-1.01,2.38-.6,2.39,1.37l.7,23.17c.02.8.33,1.49.91,2.07,1.72,1.91,5.14.46,5.06-2.07,0,0-.84-24.12-.84-24.12-.34-7.06-8.58-9.27-13.09-3.9-2.76-3.84-7.99-3.97-11.3-.7-.73-3.44-5.88-2.7-5.84.7Z"/>
  </g>
  <g>
    <path class="cls-5" d="M55.36,78.22v46.72h26.79c.82,0,1.53-.29,2.13-.86,1.94-1.71.48-5.14-2.06-5.04h-20.95v-14.48h9c1.63.04,2.99-1.4,2.95-3.02.04-1.55-1.4-3-2.95-2.95h-9v-14.38h20.88c2.6.07,4.07-3.28,2.13-5.08-.6-.6-1.31-.9-2.13-.9h-26.79Z"/>
    <path class="cls-5" d="M101.44,123.08c1.77,1.24,3.69,1.86,5.75,1.86,0,0,11.95,0,11.95,0,7.05-.03,11.24-8.41,7.26-14.26-1.02-1.56-2.33-2.69-3.92-3.39l-15.7-6.99c-.88-.4-1.31-.98-1.31-1.74,0-1.09.66-1.64,1.97-1.64h13.36c.84,0,1.65.42,2.43,1.27,1.29,1.44,3.14,1.74,4.55.46,1.79-1.88.78-3.96-1.53-5.75-1.62-1.25-3.48-1.88-5.59-1.88h-13.54c-8.25.07-10.58,11.4-2.88,14.7,0,0,15.86,7.14,15.86,7.14,3.22,1.14,2.16,6.21-1.09,6.19h-11c-1.62,0-2.85-.42-3.71-1.27-1.48-1.56-3.29-1.68-4.64-.37-1.75,2.05-.74,3.88,1.79,5.68Z"/>
    <path class="cls-5" d="M169.2,119.04h-12.09c-1.08,0-1.95-.29-2.6-.88l-5.2-4.43c-.61-.54-.91-1.2-.91-1.97v-7.21c0-1.1.39-1.98,1.16-2.64l4.75-4.04c.73-.63,1.49-.95,2.29-.95,0,0,12.69,0,12.69,0,2.58.12,3.96-3.3,2.09-5.04-.57-.57-1.27-.86-2.09-.86h-13.25c-1.9,0-3.68.68-5.34,2.04l-5.17,4.46c-2.16,1.85-3.19,4.03-3.09,6.54v7.7c0,2.6.91,4.66,2.74,6.19l5.73,4.99c1.57,1.34,3.47,2,5.7,2h12.62c3.91-.07,3.88-5.82,0-5.91Z"/>
    <path class="cls-5" d="M215.61,121.99s-.74-22.11-.74-22.11c-.02-4.81-4.12-8.97-8.94-8.86h-11.23c-.82,0-1.52.29-2.1.86-1.89,1.72-.42,5.13,2.1,5.04h11.24c1.6-.04,3,1.35,2.96,2.95l.07,4.18c-1.2-.28-2.11-.42-2.75-.42h-11.58c-4.8-.12-9.06,4.12-8.94,8.93v3.45c0,2.48.87,4.59,2.61,6.33,1.74,1.73,3.85,2.6,6.34,2.6h10l5-2.95c.07,3.89,5.9,3.91,5.98,0Z"/>
    <path class="cls-5" d="M209.4,115.14l-.18-2.5c-.01-1.63-1.32-2.98-2.96-2.95h-11.65c-1.6-.04-2.99,1.35-2.96,2.95v3.3c-.04,1.55,1.41,3,2.96,2.95,0,0,8.34,0,8.34,0l6.44-3.76Z"/>
    <path class="cls-5" d="M229.32,92.53v42.12c-.05,1.63,1.41,3.06,3.02,3.02,1.63.04,2.99-1.4,2.95-3.02v-13.08s2.29,2.29,2.29,2.29c1.86,1.97,4.47,2.55,7.14,2.39,2.44,0,4.45-.73,6.05-2.18l4.82-4.15c2.32-1.99,3.48-4.44,3.48-7.35v-9.21c0-2.88-1.08-5.26-3.23-7.14,0,0-4.92-4.25-4.92-4.25-2.13-1.95-4.52-2.47-7.14-2.32-2.79,0-5.61,1.59-8.47,4.78,0,0,0-1.9,0-1.9-.12-3.92-5.87-3.87-5.98,0Z"/>
    <path class="cls-5" d="M235.29,111.76c0,.91.43,1.81,1.3,2.67l4.25,4.25c1.05,1.05,1.98,1.58,2.78,1.58,1.43.03,2.57.13,3.83-1.09,0,0,4.61-4.04,4.61-4.04.77-.61,1.16-1.44,1.16-2.5v-9.53c0-.94-.43-1.77-1.3-2.5l-4.96-4.25c-.92-.96-2.4-.71-3.55-.74-.66,0-1.51.54-2.57,1.62l-4.39,4.36c-.77.77-1.16,1.64-1.16,2.6v7.56Z"/>
    <path class="cls-5" d="M278.78,106.24h17.93v-4.11c0-1.1-.34-1.95-1.02-2.53l-1.72-1.51c-.89-.73-1.69-1.09-2.39-1.09h-7.42c-1.58-.13-3.07,1.46-4.22,2.39-.77.59-1.16,1.35-1.16,2.29v4.57Z"/>
    <path class="cls-5" d="M272.74,101.11v13.54c-.03,1.93,1.31,4.79,2.88,5.98l2.64,2.32c1.2,1.04,4.04,2.07,5.77,2,0,0,15.57,0,15.57,0,2.52.04,3.99-3.3,2.07-5.04-.59-.57-1.28-.86-2.07-.86h-15.19c-.84,0-1.73-.36-2.67-1.09-1.18-1.02-3.17-2.26-3.02-4.01v-1.72h20.88c.8,0,1.49-.29,2.07-.88s.88-1.28.88-2.07v-7.14c0-2.84-.8-4.97-2.39-6.4l-2.21-2.11c-1.85-1.73-3.82-2.6-5.91-2.6h-8.3c-1.97,0-3.76.66-5.38,1.97,0,0-2.46,1.93-2.46,1.93-1.57,1.1-3.16,4.45-3.16,6.19Z"/>
    <path class="cls-5" d="M55.43,208.39c-.1,2.59,3.32,3.94,5.08,2.09.6-.57.9-1.27.9-2.09v-22.54h4.27l13.83,23.91c.61,1.06,1.5,1.58,2.67,1.57,2.35.03,3.87-2.78,2.44-4.75l-12.06-20.74s3.76,0,3.76,0c4.78.12,8.98-4.15,8.86-8.93v-3.38c0-2.44-.87-4.53-2.62-6.29-1.75-1.76-3.83-2.64-6.24-2.64h-20.88v43.77Z"/>
    <path class="cls-5" d="M61.34,179.95h14.98c1.6.04,2.99-1.35,2.95-2.95v-3.45c.04-1.6-1.35-2.99-2.95-2.95h-14.98v9.35Z"/>
    <path class="cls-5" d="M104.76,200.27c0,1.08.39,1.93,1.16,2.57l2.21,1.9c.49.42,1.18.63,2.07.63h6.86c1.73.15,3.32-1.62,4.54-2.67.73-.56,1.09-1.35,1.09-2.36v-11.95c0-1.17-.36-2.04-1.09-2.6l-2.07-1.65c-.7-.58-1.52-.88-2.46-.88h-6.12c-2.36-.14-3.59,1.41-5.1,2.67-.73.61-1.09,1.41-1.09,2.39v11.95Z"/>
    <path class="cls-5" d="M98.78,188.07s0,12.48,0,12.48c-.24,5.07,6.45,10.98,11.43,10.72h6.93c2.65,0,5.22-1.12,7.72-3.38s3.74-4.7,3.74-7.35v-12.48c.28-5.2-6.46-11.04-11.46-10.72h-6.93c-2.81,0-5.42,1.14-7.82,3.43-2.4,2.29-3.6,4.72-3.6,7.29Z"/>
    <path class="cls-5" d="M142.27,188.07s0,12.48,0,12.48c-.24,5.07,6.45,10.98,11.43,10.72h6.93c2.65,0,5.22-1.12,7.72-3.38s3.74-4.7,3.74-7.35v-12.48c.28-5.2-6.46-11.04-11.46-10.72h-6.93c-2.81,0-5.42,1.14-7.82,3.43-2.4,2.29-3.6,4.72-3.6,7.29Z"/>
    <path class="cls-5" d="M148.25,200.27c0,1.08.39,1.93,1.16,2.57l2.21,1.9c.49.42,1.18.63,2.07.63h6.86c1.73.15,3.32-1.62,4.54-2.67.73-.56,1.09-1.35,1.09-2.36v-11.95c0-1.17-.36-2.04-1.09-2.6l-2.07-1.65c-.7-.58-1.52-.88-2.46-.88h-6.12c-2.36-.14-3.59,1.41-5.1,2.67-.73.61-1.09,1.41-1.09,2.39v11.95Z"/>
    <path class="cls-5" d="M185.09,180.37v28.02c-.08,2.49,3.36,4,5.06,2.07.56-.58.84-1.28.84-2.07v-21.02s4.23-3.59,4.23-3.59c.97-.86,2.56-.52,2.45,1.05v23.48c-.05,1.59,1.39,2.99,2.95,2.95,1.58.04,2.99-1.3,2.95-2.88v-21.59s3.52-2.95,3.52-2.95c1.22-1.01,2.38-.6,2.39,1.37l.7,23.17c.02.8.33,1.49.91,2.07,1.72,1.91,5.14.46,5.06-2.07,0,0-.84-24.12-.84-24.12-.34-7.06-8.58-9.27-13.09-3.9-2.76-3.84-7.99-3.97-11.3-.7-.73-3.44-5.88-2.7-5.84.7Z"/>
  </g>
  <g>
    <path class="cls-4" d="M70.7,481.32c-.59-.57-1.28-.86-2.07-.86h-14.98v16.98h14.98c.8,0,1.49-.29,2.07-.86.59-.57.88-1.27.88-2.09v-11.07c0-.82-.29-1.52-.88-2.09Z"/>
    <path class="cls-4" d="M47.67,474.48v43.77c0,.82.29,1.52.88,2.09.59.57,1.3.86,2.14.86s1.52-.29,2.09-.86c.57-.57.86-1.27.86-2.09v-14.91h14.98c2.44,0,4.52-.87,6.26-2.6,1.73-1.73,2.6-3.82,2.6-6.26v-11.07c0-2.44-.87-4.54-2.62-6.29-1.75-1.76-3.83-2.64-6.24-2.64h-20.95Z"/>
    <path class="cls-4" d="M91.16,490.23v28.02c0,.82.29,1.52.86,2.09.57.57,1.27.86,2.09.86s1.49-.29,2.07-.86c.59-.57.88-1.27.88-2.09v-16.49l8.4-7.28c1.01-.87,1.92-1.3,2.74-1.3h3.83c.82,0,1.52.29,2.09.86.57.57.86,1.27.86,2.09v1.65c0,.82.29,1.52.86,2.09.57.57,1.27.86,2.09.86s1.52-.29,2.09-.88c.57-.59.86-1.3.86-2.14v-1.58c0-2.44-.87-4.52-2.6-6.26-1.73-1.73-3.82-2.6-6.26-2.6h-4.32c-1.9,0-3.84.84-5.84,2.53l-4.82,4.11v-3.69c0-.84-.29-1.56-.86-2.14-.57-.59-1.27-.88-2.09-.88s-1.52.3-2.09.9c-.57.6-.86,1.31-.86,2.13Z"/>
    <path class="cls-4" d="M140.55,510.13c0,1.08.39,1.93,1.16,2.57l2.21,1.9c.49.42,1.18.63,2.07.63h6.86c1.01,0,1.92-.36,2.74-1.09l1.79-1.58c.73-.56,1.09-1.35,1.09-2.36v-11.95c0-1.17-.36-2.04-1.09-2.6l-2.07-1.65c-.7-.59-1.52-.88-2.46-.88h-6.12c-1.34,0-2.37.32-3.09.95l-2,1.72c-.73.61-1.09,1.41-1.09,2.39v11.95Z"/>
    <path class="cls-4" d="M134.57,497.93v12.48c0,2.58,1.23,5.01,3.69,7.29s5.04,3.43,7.73,3.43h6.93c2.65,0,5.22-1.12,7.72-3.38s3.74-4.7,3.74-7.35v-12.48c0-2.7-1.25-5.17-3.74-7.42s-5.07-3.35-7.72-3.3h-6.93c-2.81,0-5.42,1.14-7.82,3.43-2.4,2.29-3.6,4.72-3.6,7.29Z"/>
    <path class="cls-4" d="M205.06,477.58v-2.6c0-.77-.3-1.46-.9-2.06s-1.28-.9-2.06-.9h-3.16c-.77,0-1.45.29-2.04.88-.59.59-.89,1.28-.91,2.07v2.6c0,.82.29,1.52.86,2.09.57.57,1.27.86,2.09.86h3.16c.82,0,1.52-.29,2.09-.88.57-.59.86-1.28.86-2.07Z"/>
    <path class="cls-4" d="M180.95,525.74c0,1.97.89,3.81,2.67,5.54,1.78,1.72,3.87,2.58,6.26,2.58h6.26c2.44,0,4.52-.87,6.26-2.6,1.73-1.73,2.6-3.81,2.6-6.22v-34.73c0-.82-.29-1.53-.86-2.13-.57-.6-1.27-.9-2.09-.9h-12.02c-.82,0-1.52.29-2.09.88-.57.59-.86,1.28-.86,2.07,0,.84.29,1.55.86,2.11.57.56,1.27.84,2.09.84h9v31.85c0,.82-.29,1.52-.86,2.09-.57.57-1.27.86-2.09.86h-5.91c-1.03,0-1.76-.22-2.18-.67s-.79-1.09-1.11-1.93-.66-1.46-1.02-1.86c-.36-.4-.99-.6-1.88-.6-.84,0-1.56.29-2.14.88-.59.59-.88,1.23-.88,1.93Z"/>
    <path class="cls-4" d="M221.55,497.37v13.54c0,.98.28,2.06.83,3.23s1.24,2.09,2.06,2.74l2.64,2.32c.54.47,1.38.92,2.51,1.35s2.22.65,3.25.65h15.57c.77,0,1.46-.29,2.06-.88s.9-1.28.9-2.07-.29-1.52-.88-2.09-1.28-.86-2.07-.86h-15.19c-.84,0-1.73-.36-2.67-1.09l-1.72-1.44c-.87-.7-1.3-1.56-1.3-2.57v-1.72h20.88c.8,0,1.49-.29,2.07-.88s.88-1.28.88-2.07v-7.14c0-2.84-.8-4.97-2.39-6.4l-2.21-2.11c-1.85-1.73-3.82-2.6-5.91-2.6h-8.3c-1.97,0-3.76.66-5.38,1.97l-2.46,1.93c-.91.73-1.67,1.75-2.27,3.06s-.9,2.36-.9,3.13Z"/>
    <path class="cls-4" d="M227.6,502.5h17.93v-4.11c0-1.1-.34-1.95-1.02-2.53l-1.72-1.51c-.89-.73-1.69-1.09-2.39-1.09h-7.42c-.91,0-1.75.32-2.5.95l-1.72,1.44c-.77.59-1.16,1.35-1.16,2.29v4.57Z"/>
    <path class="cls-4" d="M265.18,500.32v7.7c0,2.6.91,4.66,2.74,6.19l5.73,4.99c1.57,1.34,3.47,2,5.7,2h12.62c.82,0,1.52-.29,2.09-.86s.86-1.27.86-2.09-.29-1.52-.88-2.09-1.28-.86-2.07-.86h-12.09c-1.08,0-1.95-.29-2.6-.88l-5.2-4.43c-.61-.54-.91-1.2-.91-1.97v-7.21c0-1.1.39-1.98,1.16-2.64l4.75-4.04c.73-.63,1.49-.95,2.29-.95h12.69c.82,0,1.52-.28,2.09-.84s.86-1.27.86-2.11-.29-1.52-.86-2.09-1.27-.86-2.09-.86h-13.25c-1.9,0-3.68.68-5.34,2.04l-5.17,4.46c-2.16,1.85-3.19,4.03-3.09,6.54Z"/>
    <path class="cls-4" d="M308.53,490.23c0,.84.29,1.55.86,2.11s1.27.84,2.09.84h3.02v19.16c0,2.44.88,4.52,2.64,6.26s3.86,2.6,6.29,2.6h5.91c2.6,0,4.74-.88,6.42-2.65s2.51-3.54,2.51-5.33c0-.87-.28-1.59-.83-2.16s-1.26-.86-2.13-.86c-1.48,0-2.47.85-2.99,2.55s-1.56,2.55-3.13,2.55h-5.77c-.82,0-1.53-.29-2.13-.88s-.9-1.28-.9-2.07v-19.16h11.95c.8,0,1.49-.29,2.07-.86s.88-1.27.88-2.09-.29-1.49-.88-2.07-1.28-.88-2.07-.88h-11.88v-7.24c0-.8-.3-1.49-.9-2.07s-1.28-.88-2.06-.88c-.82,0-1.52.29-2.09.86s-.86,1.27-.86,2.09v7.24h-3.09c-.82,0-1.52.29-2.09.86s-.86,1.27-.86,2.09Z"/>
  </g>
  <g>
    <path class="cls-2" d="M98.15,91.2h-20.88v14.38h9c1.55-.04,3,1.4,2.95,2.95.04,1.63-1.33,3.06-2.95,3.02,0,0-9,0-9,0v14.48h20.95c2.53-.1,4,3.34,2.06,5.04-.6.57-1.31.86-2.13.86h-26.79v-46.72h26.79c.82,0,1.53.3,2.13.9,1.94,1.8.47,5.15-2.13,5.08Z"/>
    <path class="cls-2" d="M123.11,98.02h13.54c2.11,0,3.97.63,5.59,1.88,2.31,1.78,3.32,3.87,1.53,5.75-1.41,1.28-3.26.98-4.55-.46-.77-.84-1.58-1.27-2.43-1.27h-13.36c-1.31,0-1.97.55-1.97,1.64,0,.77.44,1.35,1.31,1.74l15.7,6.99c1.59.7,2.9,1.83,3.92,3.39,3.98,5.84-.21,14.23-7.26,14.26,0,0-11.95,0-11.95,0-2.06,0-3.98-.62-5.75-1.86-2.53-1.8-3.54-3.62-1.79-5.68,1.35-1.31,3.16-1.19,4.64.37.86.84,2.09,1.27,3.71,1.27h11c3.25.02,4.31-5.04,1.09-6.19,0,0-15.86-7.14-15.86-7.14-7.7-3.3-5.36-14.62,2.88-14.7Z"/>
    <path class="cls-2" d="M185.2,131.94h-12.62c-2.23,0-4.13-.67-5.7-2l-5.73-4.99c-1.83-1.52-2.74-3.59-2.74-6.19v-7.7c-.09-2.51.94-4.69,3.09-6.54l5.17-4.46c1.66-1.36,3.45-2.04,5.34-2.04h13.25c.82,0,1.52.29,2.09.86,1.86,1.74.48,5.17-2.09,5.04,0,0-12.69,0-12.69,0-.8,0-1.56.32-2.29.95l-4.75,4.04c-.77.66-1.16,1.54-1.16,2.64v7.21c0,.77.3,1.43.91,1.97l5.2,4.43c.66.59,1.52.88,2.6.88h12.09c3.88.09,3.91,5.83,0,5.91Z"/>
    <path class="cls-2" d="M210.63,110.64h11.58c.63,0,1.55.14,2.75.42l-.07-4.18c.04-1.6-1.36-2.99-2.96-2.95,0,0-11.24,0-11.24,0-2.52.09-3.98-3.33-2.1-5.04.58-.57,1.27-.86,2.1-.86h11.23c4.82-.11,8.92,4.05,8.94,8.86,0,0,.74,22.11.74,22.11-.08,3.91-5.91,3.89-5.98,0l-5,2.95h-10c-2.49,0-4.6-.87-6.34-2.6-1.74-1.73-2.61-3.84-2.61-6.33v-3.45c-.12-4.81,4.14-9.05,8.94-8.93ZM225.4,122.14l-.18-2.5c-.01-1.63-1.32-2.98-2.96-2.95,0,0-11.65,0-11.65,0-1.6-.04-3,1.35-2.96,2.95,0,0,0,3.3,0,3.3-.04,1.55,1.41,3,2.96,2.95,0,0,8.34,0,8.34,0l6.44-3.76Z"/>
    <path class="cls-2" d="M251.29,128.57v13.08c.04,1.63-1.33,3.06-2.95,3.02-1.61.04-3.07-1.39-3.02-3.02,0,0,0-42.12,0-42.12.1-3.87,5.86-3.92,5.98,0,0,0,0,1.9,0,1.9,2.86-3.19,5.68-4.78,8.47-4.78,2.62-.15,5,.37,7.14,2.32,0,0,4.92,4.25,4.92,4.25,2.16,1.88,3.23,4.25,3.23,7.14v9.21c0,2.91-1.16,5.36-3.48,7.35l-4.82,4.15c-1.59,1.45-3.61,2.18-6.05,2.18-2.67.16-5.28-.42-7.14-2.39,0,0-2.29-2.29-2.29-2.29ZM259.63,127.27c1.43.03,2.57.13,3.83-1.09,0,0,4.61-4.04,4.61-4.04.77-.61,1.16-1.44,1.16-2.5v-9.53c0-.94-.43-1.77-1.3-2.5l-4.96-4.25c-.92-.96-2.4-.71-3.55-.74-.66,0-1.51.54-2.57,1.62l-4.39,4.36c-.77.77-1.16,1.64-1.16,2.6v7.56c0,.91.43,1.81,1.3,2.67l4.25,4.25c1.05,1.05,1.98,1.58,2.78,1.58Z"/>
    <path class="cls-2" d="M318.55,109.13v7.14c0,.8-.29,1.49-.88,2.07s-1.28.88-2.07.88h-20.88v1.72c-.15,1.75,1.84,2.99,3.02,4.01.94.73,1.83,1.09,2.67,1.09h15.19c.8,0,1.49.29,2.07.86,1.91,1.74.44,5.09-2.07,5.04,0,0-15.57,0-15.57,0-1.72.06-4.56-.96-5.77-2,0,0-2.64-2.32-2.64-2.32-1.57-1.19-2.91-4.04-2.88-5.98,0,0,0-13.54,0-13.54,0-1.73,1.6-5.09,3.16-6.19,0,0,2.46-1.93,2.46-1.93,1.62-1.31,3.41-1.97,5.38-1.97h8.3c2.09,0,4.05.87,5.91,2.6l2.21,2.11c1.59,1.43,2.39,3.56,2.39,6.4ZM294.78,108.67v4.57h17.93v-4.11c0-1.1-.34-1.95-1.02-2.53l-1.72-1.51c-.89-.73-1.69-1.09-2.39-1.09h-7.42c-1.58-.13-3.07,1.46-4.22,2.39-.77.59-1.16,1.35-1.16,2.29Z"/>
    <path class="cls-2" d="M71.43,215.39v-43.77h20.88c2.41,0,4.49.88,6.24,2.64,1.75,1.76,2.62,3.86,2.62,6.29v3.38c.13,4.78-4.08,9.05-8.86,8.93,0,0-3.76,0-3.76,0l12.06,20.74c1.43,1.96-.08,4.78-2.44,4.75-1.18,0-2.07-.52-2.67-1.57l-13.83-23.91h-4.27v22.54c0,.82-.3,1.52-.9,2.09-1.76,1.85-5.18.49-5.08-2.09ZM77.34,186.95h14.98c1.6.04,2.99-1.35,2.95-2.95,0,0,0-3.45,0-3.45.04-1.6-1.35-2.99-2.95-2.95,0,0-14.98,0-14.98,0v9.35Z"/>
    <path class="cls-2" d="M144.59,195.07v12.48c0,2.65-1.25,5.1-3.74,7.35s-5.07,3.38-7.72,3.38h-6.93c-4.98.26-11.66-5.65-11.43-10.72,0,0,0-12.48,0-12.48,0-2.58,1.2-5.01,3.6-7.29,2.4-2.29,5.01-3.43,7.82-3.43,0,0,6.93,0,6.93,0,5-.31,11.74,5.53,11.46,10.72ZM120.76,195.32v11.95c0,1.08.39,1.93,1.16,2.57l2.21,1.9c.49.42,1.18.63,2.07.63h6.86c1.73.15,3.32-1.62,4.54-2.67.73-.56,1.09-1.35,1.09-2.36v-11.95c0-1.17-.36-2.04-1.09-2.6l-2.07-1.65c-.7-.58-1.52-.88-2.46-.88h-6.12c-2.36-.14-3.59,1.41-5.1,2.67-.73.61-1.09,1.41-1.09,2.39Z"/>
    <path class="cls-2" d="M188.08,195.07v12.48c0,2.65-1.25,5.1-3.74,7.35s-5.07,3.38-7.72,3.38h-6.93c-4.98.26-11.66-5.65-11.43-10.72,0,0,0-12.48,0-12.48,0-2.58,1.2-5.01,3.6-7.29,2.4-2.29,5.01-3.43,7.82-3.43,0,0,6.93,0,6.93,0,5-.31,11.74,5.53,11.46,10.72ZM164.25,195.32v11.95c0,1.08.39,1.93,1.16,2.57l2.21,1.9c.49.42,1.18.63,2.07.63h6.86c1.73.15,3.32-1.62,4.54-2.67.73-.56,1.09-1.35,1.09-2.36v-11.95c0-1.17-.36-2.04-1.09-2.6l-2.07-1.65c-.7-.58-1.52-.88-2.46-.88h-6.12c-2.36-.14-3.59,1.41-5.1,2.67-.73.61-1.09,1.41-1.09,2.39Z"/>
    <path class="cls-2" d="M201.09,215.39v-28.02c-.05-3.4,5.1-4.15,5.84-.7,3.31-3.26,8.55-3.14,11.3.7,4.52-5.37,12.76-3.16,13.09,3.9,0,0,.84,24.12.84,24.12.08,2.53-3.34,3.98-5.06,2.07-.59-.58-.89-1.28-.91-2.07l-.7-23.17c-.02-1.97-1.17-2.38-2.39-1.37,0,0-3.52,2.95-3.52,2.95v21.59c.04,1.58-1.37,2.92-2.95,2.88-1.57.04-3-1.37-2.95-2.95,0,0,0-23.48,0-23.48.11-1.57-1.47-1.92-2.45-1.05,0,0-4.23,3.59-4.23,3.59v21.02c0,.8-.28,1.49-.84,2.07-1.7,1.93-5.14.42-5.06-2.07Z"/>
  </g>
  <g>
    <path class="cls-2" d="M104.15,94.2h-20.88v14.38h9c1.55-.04,3,1.4,2.95,2.95.04,1.63-1.33,3.06-2.95,3.02,0,0-9,0-9,0v14.48h20.95c2.53-.1,4,3.34,2.06,5.04-.6.57-1.31.86-2.13.86h-26.79v-46.72h26.79c.82,0,1.53.3,2.13.9,1.94,1.8.47,5.15-2.13,5.08Z"/>
    <path class="cls-2" d="M129.11,101.02h13.54c2.11,0,3.97.63,5.59,1.88,2.31,1.78,3.32,3.87,1.53,5.75-1.41,1.28-3.26.98-4.55-.46-.77-.84-1.58-1.27-2.43-1.27h-13.36c-1.31,0-1.97.55-1.97,1.64,0,.77.44,1.35,1.31,1.74l15.7,6.99c1.59.7,2.9,1.83,3.92,3.39,3.98,5.84-.21,14.23-7.26,14.26,0,0-11.95,0-11.95,0-2.06,0-3.98-.62-5.75-1.86-2.53-1.8-3.54-3.62-1.79-5.68,1.35-1.31,3.16-1.19,4.64.37.86.84,2.09,1.27,3.71,1.27h11c3.25.02,4.31-5.04,1.09-6.19,0,0-15.86-7.14-15.86-7.14-7.7-3.3-5.36-14.62,2.88-14.7Z"/>
    <path class="cls-2" d="M191.2,134.94h-12.62c-2.23,0-4.13-.67-5.7-2l-5.73-4.99c-1.83-1.52-2.74-3.59-2.74-6.19v-7.7c-.09-2.51.94-4.69,3.09-6.54l5.17-4.46c1.66-1.36,3.45-2.04,5.34-2.04h13.25c.82,0,1.52.29,2.09.86,1.86,1.74.48,5.17-2.09,5.04,0,0-12.69,0-12.69,0-.8,0-1.56.32-2.29.95l-4.75,4.04c-.77.66-1.16,1.54-1.16,2.64v7.21c0,.77.3,1.43.91,1.97l5.2,4.43c.66.59,1.52.88,2.6.88h12.09c3.88.09,3.91,5.83,0,5.91Z"/>
    <path class="cls-2" d="M216.63,113.64h11.58c.63,0,1.55.14,2.75.42l-.07-4.18c.04-1.6-1.36-2.99-2.96-2.95,0,0-11.24,0-11.24,0-2.52.09-3.98-3.33-2.1-5.04.58-.57,1.27-.86,2.1-.86h11.23c4.82-.11,8.92,4.05,8.94,8.86,0,0,.74,22.11.74,22.11-.08,3.91-5.91,3.89-5.98,0l-5,2.95h-10c-2.49,0-4.6-.87-6.34-2.6-1.74-1.73-2.61-3.84-2.61-6.33v-3.45c-.12-4.81,4.14-9.05,8.94-8.93ZM231.4,125.14l-.18-2.5c-.01-1.63-1.32-2.98-2.96-2.95,0,0-11.65,0-11.65,0-1.6-.04-3,1.35-2.96,2.95,0,0,0,3.3,0,3.3-.04,1.55,1.41,3,2.96,2.95,0,0,8.34,0,8.34,0l6.44-3.76Z"/>
    <path class="cls-2" d="M257.29,131.57v13.08c.04,1.63-1.33,3.06-2.95,3.02-1.61.04-3.07-1.39-3.02-3.02,0,0,0-42.12,0-42.12.1-3.87,5.86-3.92,5.98,0,0,0,0,1.9,0,1.9,2.86-3.19,5.68-4.78,8.47-4.78,2.62-.15,5,.37,7.14,2.32,0,0,4.92,4.25,4.92,4.25,2.16,1.88,3.23,4.25,3.23,7.14v9.21c0,2.91-1.16,5.36-3.48,7.35l-4.82,4.15c-1.59,1.45-3.61,2.18-6.05,2.18-2.67.16-5.28-.42-7.14-2.39,0,0-2.29-2.29-2.29-2.29ZM265.63,130.27c1.43.03,2.57.13,3.83-1.09,0,0,4.61-4.04,4.61-4.04.77-.61,1.16-1.44,1.16-2.5v-9.53c0-.94-.43-1.77-1.3-2.5l-4.96-4.25c-.92-.96-2.4-.71-3.55-.74-.66,0-1.51.54-2.57,1.62l-4.39,4.36c-.77.77-1.16,1.64-1.16,2.6v7.56c0,.91.43,1.81,1.3,2.67l4.25,4.25c1.05,1.05,1.98,1.58,2.78,1.58Z"/>
    <path class="cls-2" d="M324.55,112.13v7.14c0,.8-.29,1.49-.88,2.07s-1.28.88-2.07.88h-20.88v1.72c-.15,1.75,1.84,2.99,3.02,4.01.94.73,1.83,1.09,2.67,1.09h15.19c.8,0,1.49.29,2.07.86,1.91,1.74.44,5.09-2.07,5.04,0,0-15.57,0-15.57,0-1.72.06-4.56-.96-5.77-2,0,0-2.64-2.32-2.64-2.32-1.57-1.19-2.91-4.04-2.88-5.98,0,0,0-13.54,0-13.54,0-1.73,1.6-5.09,3.16-6.19,0,0,2.46-1.93,2.46-1.93,1.62-1.31,3.41-1.97,5.38-1.97h8.3c2.09,0,4.05.87,5.91,2.6l2.21,2.11c1.59,1.43,2.39,3.56,2.39,6.4ZM300.78,111.67v4.57h17.93v-4.11c0-1.1-.34-1.95-1.02-2.53l-1.72-1.51c-.89-.73-1.69-1.09-2.39-1.09h-7.42c-1.58-.13-3.07,1.46-4.22,2.39-.77.59-1.16,1.35-1.16,2.29Z"/>
    <path class="cls-2" d="M77.43,218.39v-43.77h20.88c2.41,0,4.49.88,6.24,2.64,1.75,1.76,2.62,3.86,2.62,6.29v3.38c.13,4.78-4.08,9.05-8.86,8.93,0,0-3.76,0-3.76,0l12.06,20.74c1.43,1.96-.08,4.78-2.44,4.75-1.18,0-2.07-.52-2.67-1.57l-13.83-23.91h-4.27v22.54c0,.82-.3,1.52-.9,2.09-1.76,1.85-5.18.49-5.08-2.09ZM83.34,189.95h14.98c1.6.04,2.99-1.35,2.95-2.95,0,0,0-3.45,0-3.45.04-1.6-1.35-2.99-2.95-2.95,0,0-14.98,0-14.98,0v9.35Z"/>
    <path class="cls-2" d="M150.59,198.07v12.48c0,2.65-1.25,5.1-3.74,7.35s-5.07,3.38-7.72,3.38h-6.93c-4.98.26-11.66-5.65-11.43-10.72,0,0,0-12.48,0-12.48,0-2.58,1.2-5.01,3.6-7.29,2.4-2.29,5.01-3.43,7.82-3.43,0,0,6.93,0,6.93,0,5-.31,11.74,5.53,11.46,10.72ZM126.76,198.32v11.95c0,1.08.39,1.93,1.16,2.57l2.21,1.9c.49.42,1.18.63,2.07.63h6.86c1.73.15,3.32-1.62,4.54-2.67.73-.56,1.09-1.35,1.09-2.36v-11.95c0-1.17-.36-2.04-1.09-2.6l-2.07-1.65c-.7-.58-1.52-.88-2.46-.88h-6.12c-2.36-.14-3.59,1.41-5.1,2.67-.73.61-1.09,1.41-1.09,2.39Z"/>
    <path class="cls-2" d="M194.08,198.07v12.48c0,2.65-1.25,5.1-3.74,7.35s-5.07,3.38-7.72,3.38h-6.93c-4.98.26-11.66-5.65-11.43-10.72,0,0,0-12.48,0-12.48,0-2.58,1.2-5.01,3.6-7.29,2.4-2.29,5.01-3.43,7.82-3.43,0,0,6.93,0,6.93,0,5-.31,11.74,5.53,11.46,10.72ZM170.25,198.32v11.95c0,1.08.39,1.93,1.16,2.57l2.21,1.9c.49.42,1.18.63,2.07.63h6.86c1.73.15,3.32-1.62,4.54-2.67.73-.56,1.09-1.35,1.09-2.36v-11.95c0-1.17-.36-2.04-1.09-2.6l-2.07-1.65c-.7-.58-1.52-.88-2.46-.88h-6.12c-2.36-.14-3.59,1.41-5.1,2.67-.73.61-1.09,1.41-1.09,2.39Z"/>
    <path class="cls-2" d="M207.09,218.39v-28.02c-.05-3.4,5.1-4.15,5.84-.7,3.31-3.26,8.55-3.14,11.3.7,4.52-5.37,12.76-3.16,13.09,3.9,0,0,.84,24.12.84,24.12.08,2.53-3.34,3.98-5.06,2.07-.59-.58-.89-1.28-.91-2.07l-.7-23.17c-.02-1.97-1.17-2.38-2.39-1.37,0,0-3.52,2.95-3.52,2.95v21.59c.04,1.58-1.37,2.92-2.95,2.88-1.57.04-3-1.37-2.95-2.95,0,0,0-23.48,0-23.48.11-1.57-1.47-1.92-2.45-1.05,0,0-4.23,3.59-4.23,3.59v21.02c0,.8-.28,1.49-.84,2.07-1.7,1.93-5.14.42-5.06-2.07Z"/>
  </g>
  <g>
    <path class="cls-3" d="M50.67,530.25v-43.77h20.95c2.41,0,4.49.88,6.24,2.64,1.75,1.76,2.62,3.86,2.62,6.29v11.07c0,2.44-.87,4.52-2.6,6.26-1.73,1.73-3.82,2.6-6.26,2.6h-14.98v14.91c0,.82-.29,1.52-.86,2.09-.57.57-1.27.86-2.09.86s-1.56-.29-2.14-.86c-.59-.57-.88-1.27-.88-2.09ZM56.65,509.44h14.98c.8,0,1.49-.29,2.07-.86.59-.57.88-1.27.88-2.09v-11.07c0-.82-.29-1.52-.88-2.09-.59-.57-1.28-.86-2.07-.86h-14.98v16.98Z"/>
    <path class="cls-3" d="M94.16,530.25v-28.02c0-.82.29-1.53.86-2.13.57-.6,1.27-.9,2.09-.9s1.52.29,2.09.88c.57.59.86,1.3.86,2.14v3.69l4.82-4.11c1.99-1.69,3.94-2.53,5.84-2.53h4.32c2.44,0,4.52.87,6.26,2.6,1.73,1.73,2.6,3.82,2.6,6.26v1.58c0,.84-.29,1.56-.86,2.14-.57.59-1.27.88-2.09.88s-1.52-.29-2.09-.86c-.57-.57-.86-1.27-.86-2.09v-1.65c0-.82-.29-1.52-.86-2.09-.57-.57-1.27-.86-2.09-.86h-3.83c-.82,0-1.73.43-2.74,1.3l-8.4,7.28v16.49c0,.82-.29,1.52-.88,2.09-.59.57-1.28.86-2.07.86s-1.52-.29-2.09-.86c-.57-.57-.86-1.27-.86-2.09Z"/>
    <path class="cls-3" d="M167.39,509.93v12.48c0,2.65-1.25,5.1-3.74,7.35s-5.07,3.38-7.72,3.38h-6.93c-2.7,0-5.27-1.14-7.73-3.43s-3.69-4.72-3.69-7.29v-12.48c0-2.58,1.2-5.01,3.6-7.29,2.4-2.29,5.01-3.43,7.82-3.43h6.93c2.65-.05,5.22,1.05,7.72,3.3s3.74,4.72,3.74,7.42ZM143.55,510.18v11.95c0,1.08.39,1.93,1.16,2.57l2.21,1.9c.49.42,1.18.63,2.07.63h6.86c1.01,0,1.92-.36,2.74-1.09l1.79-1.58c.73-.56,1.09-1.35,1.09-2.36v-11.95c0-1.17-.36-2.04-1.09-2.6l-2.07-1.65c-.7-.59-1.52-.88-2.46-.88h-6.12c-1.34,0-2.37.32-3.09.95l-2,1.72c-.73.61-1.09,1.41-1.09,2.39Z"/>
    <path class="cls-3" d="M199.13,545.86h-6.26c-2.39,0-4.48-.86-6.26-2.58-1.78-1.72-2.67-3.57-2.67-5.54,0-.7.29-1.35.88-1.93.59-.59,1.3-.88,2.14-.88.89,0,1.52.2,1.88.6.36.4.7,1.02,1.02,1.86s.69,1.49,1.11,1.93,1.15.67,2.18.67h5.91c.82,0,1.52-.29,2.09-.86.57-.57.86-1.27.86-2.09v-31.85h-9c-.82,0-1.52-.28-2.09-.84-.57-.56-.86-1.27-.86-2.11,0-.8.29-1.49.86-2.07.57-.59,1.27-.88,2.09-.88h12.02c.82,0,1.52.3,2.09.9.57.6.86,1.31.86,2.13v34.73c0,2.41-.87,4.49-2.6,6.22-1.73,1.73-3.82,2.6-6.26,2.6ZM201.95,484.02h3.16c.77,0,1.46.3,2.06.9s.9,1.28.9,2.06v2.6c0,.8-.29,1.49-.86,2.07-.57.59-1.27.88-2.09.88h-3.16c-.82,0-1.52-.29-2.09-.86-.57-.57-.86-1.27-.86-2.09v-2.6c.02-.8.33-1.49.91-2.07.59-.59,1.27-.88,2.04-.88Z"/>
    <path class="cls-3" d="M254.36,510.39v7.14c0,.8-.29,1.49-.88,2.07s-1.28.88-2.07.88h-20.88v1.72c0,1.01.43,1.86,1.3,2.57l1.72,1.44c.94.73,1.83,1.09,2.67,1.09h15.19c.8,0,1.49.29,2.07.86s.88,1.27.88,2.09-.3,1.49-.9,2.07-1.28.88-2.06.88h-15.57c-1.03,0-2.12-.22-3.25-.65s-1.97-.88-2.51-1.35l-2.64-2.32c-.82-.66-1.51-1.57-2.06-2.74s-.83-2.25-.83-3.23v-13.54c0-.77.3-1.82.9-3.13s1.35-2.33,2.27-3.06l2.46-1.93c1.62-1.31,3.41-1.97,5.38-1.97h8.3c2.09,0,4.05.87,5.91,2.6l2.21,2.11c1.59,1.43,2.39,3.56,2.39,6.4ZM230.6,509.93v4.57h17.93v-4.11c0-1.1-.34-1.95-1.02-2.53l-1.72-1.51c-.89-.73-1.69-1.09-2.39-1.09h-7.42c-.91,0-1.75.32-2.5.95l-1.72,1.44c-.77.59-1.16,1.35-1.16,2.29Z"/>
    <path class="cls-3" d="M294.97,533.21h-12.62c-2.23,0-4.12-.67-5.7-2l-5.73-4.99c-1.83-1.52-2.74-3.59-2.74-6.19v-7.7c-.09-2.51.94-4.69,3.09-6.54l5.17-4.46c1.66-1.36,3.45-2.04,5.34-2.04h13.25c.82,0,1.52.29,2.09.86s.86,1.27.86,2.09-.29,1.55-.86,2.11-1.27.84-2.09.84h-12.69c-.8,0-1.56.32-2.29.95l-4.75,4.04c-.77.66-1.16,1.54-1.16,2.64v7.21c0,.77.3,1.43.91,1.97l5.2,4.43c.66.59,1.52.88,2.6.88h12.09c.8,0,1.49.29,2.07.86s.88,1.27.88,2.09-.29,1.52-.86,2.09-1.27.86-2.09.86Z"/>
    <path class="cls-3" d="M332.34,533.21h-5.91c-2.44,0-4.54-.87-6.29-2.6s-2.64-3.82-2.64-6.26v-19.16h-3.02c-.82,0-1.52-.28-2.09-.84s-.86-1.27-.86-2.11.29-1.52.86-2.09,1.27-.86,2.09-.86h3.09v-7.24c0-.82.29-1.52.86-2.09s1.27-.86,2.09-.86c.77,0,1.46.29,2.06.88s.9,1.28.9,2.07v7.24h11.88c.8,0,1.49.29,2.07.88s.88,1.28.88,2.07-.29,1.52-.88,2.09-1.28.86-2.07.86h-11.95v19.16c0,.8.3,1.49.9,2.07s1.31.88,2.13.88h5.77c1.57,0,2.61-.85,3.13-2.55s1.51-2.55,2.99-2.55c.87,0,1.58.29,2.13.86s.83,1.29.83,2.16c0,1.78-.84,3.56-2.51,5.33s-3.81,2.65-6.42,2.65Z"/>
  </g>
</svg>